<svg width="15" height="15" viewBox="0 0 15 15" fill="none" xmlns="http://www.w3.org/2000/svg">
<g clip-path="url(#clip0_2244_4623)">
<path fill-rule="evenodd" clip-rule="evenodd" d="M3.28125 0C3.40557 0 3.5248 0.049386 3.61271 0.137294C3.70061 0.225201 3.75 0.34443 3.75 0.46875V0.9375H11.25V0.46875C11.25 0.34443 11.2994 0.225201 11.3873 0.137294C11.4752 0.049386 11.5944 0 11.7188 0C11.8431 0 11.9623 0.049386 12.0502 0.137294C12.1381 0.225201 12.1875 0.34443 12.1875 0.46875V0.9375H13.125C13.6223 0.9375 14.0992 1.13504 14.4508 1.48667C14.8025 1.83831 15 2.31522 15 2.8125V13.125C15 13.6223 14.8025 14.0992 14.4508 14.4508C14.0992 14.8025 13.6223 15 13.125 15H1.875C1.37772 15 0.900806 14.8025 0.549175 14.4508C0.197544 14.0992 0 13.6223 0 13.125V2.8125C0 2.31522 0.197544 1.83831 0.549175 1.48667C0.900806 1.13504 1.37772 0.9375 1.875 0.9375H2.8125V0.46875C2.8125 0.34443 2.86189 0.225201 2.94979 0.137294C3.0377 0.049386 3.15693 0 3.28125 0V0ZM1.875 1.875C1.62636 1.875 1.3879 1.97377 1.21209 2.14959C1.03627 2.3254 0.9375 2.56386 0.9375 2.8125V3.75H14.0625V2.8125C14.0625 2.56386 13.9637 2.3254 13.7879 2.14959C13.6121 1.97377 13.3736 1.875 13.125 1.875H1.875ZM14.0625 4.6875H0.9375V13.125C0.9375 13.3736 1.03627 13.6121 1.21209 13.7879C1.3879 13.9637 1.62636 14.0625 1.875 14.0625H13.125C13.3736 14.0625 13.6121 13.9637 13.7879 13.7879C13.9637 13.6121 14.0625 13.3736 14.0625 13.125V4.6875Z" fill="black"/>
<path d="M10.3125 7.03125C10.3125 6.90693 10.3619 6.7877 10.4498 6.69979C10.5377 6.61189 10.6569 6.5625 10.7812 6.5625H11.7188C11.8431 6.5625 11.9623 6.61189 12.0502 6.69979C12.1381 6.7877 12.1875 6.90693 12.1875 7.03125V7.96875C12.1875 8.09307 12.1381 8.2123 12.0502 8.30021C11.9623 8.38811 11.8431 8.4375 11.7188 8.4375H10.7812C10.6569 8.4375 10.5377 8.38811 10.4498 8.30021C10.3619 8.2123 10.3125 8.09307 10.3125 7.96875V7.03125ZM7.5 7.03125C7.5 6.90693 7.54939 6.7877 7.63729 6.69979C7.7252 6.61189 7.84443 6.5625 7.96875 6.5625H8.90625C9.03057 6.5625 9.1498 6.61189 9.23771 6.69979C9.32561 6.7877 9.375 6.90693 9.375 7.03125V7.96875C9.375 8.09307 9.32561 8.2123 9.23771 8.30021C9.1498 8.38811 9.03057 8.4375 8.90625 8.4375H7.96875C7.84443 8.4375 7.7252 8.38811 7.63729 8.30021C7.54939 8.2123 7.5 8.09307 7.5 7.96875V7.03125ZM5.625 9.84375C5.625 9.71943 5.67439 9.6002 5.76229 9.51229C5.8502 9.42439 5.96943 9.375 6.09375 9.375H7.03125C7.15557 9.375 7.2748 9.42439 7.36271 9.51229C7.45061 9.6002 7.5 9.71943 7.5 9.84375V10.7812C7.5 10.9056 7.45061 11.0248 7.36271 11.1127C7.2748 11.2006 7.15557 11.25 7.03125 11.25H6.09375C5.96943 11.25 5.8502 11.2006 5.76229 11.1127C5.67439 11.0248 5.625 10.9056 5.625 10.7812V9.84375ZM2.8125 9.84375C2.8125 9.71943 2.86189 9.6002 2.94979 9.51229C3.0377 9.42439 3.15693 9.375 3.28125 9.375H4.21875C4.34307 9.375 4.4623 9.42439 4.55021 9.51229C4.63811 9.6002 4.6875 9.71943 4.6875 9.84375V10.7812C4.6875 10.9056 4.63811 11.0248 4.55021 11.1127C4.4623 11.2006 4.34307 11.25 4.21875 11.25H3.28125C3.15693 11.25 3.0377 11.2006 2.94979 11.1127C2.86189 11.0248 2.8125 10.9056 2.8125 10.7812V9.84375Z" fill="black"/>
</g>
<defs>
<clipPath id="clip0_2244_4623">
<rect width="15" height="15" fill="white"/>
</clipPath>
</defs>
</svg>
