<svg width="15" height="15" viewBox="0 0 15 15" fill="none" xmlns="http://www.w3.org/2000/svg">
<g opacity="0.8" clip-path="url(#clip0_2244_4635)">
<path fill-rule="evenodd" clip-rule="evenodd" d="M13.125 0.9375H1.875C1.62636 0.9375 1.3879 1.03627 1.21209 1.21209C1.03627 1.3879 0.9375 1.62636 0.9375 1.875V13.125C0.9375 13.3736 1.03627 13.6121 1.21209 13.7879C1.3879 13.9637 1.62636 14.0625 1.875 14.0625H13.125C13.3736 14.0625 13.6121 13.9637 13.7879 13.7879C13.9637 13.6121 14.0625 13.3736 14.0625 13.125V1.875C14.0625 1.62636 13.9637 1.3879 13.7879 1.21209C13.6121 1.03627 13.3736 0.9375 13.125 0.9375ZM1.875 0C1.37772 0 0.900806 0.197544 0.549175 0.549175C0.197544 0.900806 0 1.37772 0 1.875L0 13.125C0 13.6223 0.197544 14.0992 0.549175 14.4508C0.900806 14.8025 1.37772 15 1.875 15H13.125C13.6223 15 14.0992 14.8025 14.4508 14.4508C14.8025 14.0992 15 13.6223 15 13.125V1.875C15 1.37772 14.8025 0.900806 14.4508 0.549175C14.0992 0.197544 13.6223 0 13.125 0L1.875 0Z" fill="black"/>
<path fill-rule="evenodd" clip-rule="evenodd" d="M1.875 14.0625V13.125C1.875 12.1875 2.8125 9.375 7.5 9.375C12.1875 9.375 13.125 12.1875 13.125 13.125V14.0625H1.875ZM7.5 8.4375C8.24592 8.4375 8.96129 8.14118 9.48874 7.61374C10.0162 7.08629 10.3125 6.37092 10.3125 5.625C10.3125 4.87908 10.0162 4.16371 9.48874 3.63626C8.96129 3.10882 8.24592 2.8125 7.5 2.8125C6.75408 2.8125 6.03871 3.10882 5.51126 3.63626C4.98382 4.16371 4.6875 4.87908 4.6875 5.625C4.6875 6.37092 4.98382 7.08629 5.51126 7.61374C6.03871 8.14118 6.75408 8.4375 7.5 8.4375Z" fill="black"/>
</g>
<defs>
<clipPath id="clip0_2244_4635">
<rect width="15" height="15" fill="white"/>
</clipPath>
</defs>
</svg>
