<svg width="16" height="8" viewBox="0 0 16 8" fill="none" xmlns="http://www.w3.org/2000/svg">
<path fill-rule="evenodd" clip-rule="evenodd" d="M0.852756 0.226779C0.905007 0.174395 0.967079 0.132834 1.03542 0.104477C1.10376 0.0761196 1.17702 0.0615234 1.25101 0.0615234C1.32499 0.0615234 1.39826 0.0761196 1.46659 0.104477C1.53493 0.132834 1.597 0.174395 1.64926 0.226779L8.00101 6.57965L14.3528 0.226779C14.4051 0.17448 14.4671 0.132994 14.5355 0.10469C14.6038 0.0763859 14.677 0.0618179 14.751 0.0618179C14.825 0.0618179 14.8982 0.0763859 14.9665 0.10469C15.0349 0.132994 15.097 0.17448 15.1493 0.226779C15.2016 0.279078 15.243 0.341165 15.2713 0.409497C15.2996 0.477829 15.3142 0.551067 15.3142 0.625029C15.3142 0.698991 15.2996 0.772229 15.2713 0.84056C15.243 0.908892 15.2016 0.97098 15.1493 1.02328L8.39926 7.77328C8.347 7.82566 8.28493 7.86722 8.21659 7.89558C8.14825 7.92394 8.07499 7.93853 8.00101 7.93853C7.92702 7.93853 7.85376 7.92394 7.78542 7.89558C7.71708 7.86722 7.65501 7.82566 7.60276 7.77328L0.852756 1.02328C0.800372 0.971028 0.758811 0.908955 0.730454 0.840617C0.702097 0.772278 0.6875 0.699017 0.6875 0.625029C0.6875 0.551041 0.702097 0.477779 0.730454 0.409441C0.758811 0.341103 0.800372 0.27903 0.852756 0.226779Z" fill="white"/>
</svg>
