<svg width="17" height="17" viewBox="0 0 17 17" fill="none" xmlns="http://www.w3.org/2000/svg">
<g clip-path="url(#clip0_1685_1817)">
<path opacity="0.5" fill-rule="evenodd" clip-rule="evenodd" d="M3.71875 0C3.85965 0 3.99477 0.0559708 4.0944 0.1556C4.19403 0.255228 4.25 0.390354 4.25 0.53125V1.0625H12.75V0.53125C12.75 0.390354 12.806 0.255228 12.9056 0.1556C13.0052 0.0559708 13.1404 0 13.2812 0C13.4221 0 13.5573 0.0559708 13.6569 0.1556C13.7565 0.255228 13.8125 0.390354 13.8125 0.53125V1.0625H14.875C15.4386 1.0625 15.9791 1.28638 16.3776 1.6849C16.7761 2.08341 17 2.62391 17 3.1875V14.875C17 15.4386 16.7761 15.9791 16.3776 16.3776C15.9791 16.7761 15.4386 17 14.875 17H2.125C1.56141 17 1.02091 16.7761 0.622398 16.3776C0.223883 15.9791 0 15.4386 0 14.875V3.1875C0 2.62391 0.223883 2.08341 0.622398 1.6849C1.02091 1.28638 1.56141 1.0625 2.125 1.0625H3.1875V0.53125C3.1875 0.390354 3.24347 0.255228 3.3431 0.1556C3.44273 0.0559708 3.57785 0 3.71875 0V0ZM1.0625 4.25V14.875C1.0625 15.1568 1.17444 15.427 1.3737 15.6263C1.57296 15.8256 1.84321 15.9375 2.125 15.9375H14.875C15.1568 15.9375 15.427 15.8256 15.6263 15.6263C15.8256 15.427 15.9375 15.1568 15.9375 14.875V4.25H1.0625Z" fill="white"/>
<path opacity="0.5" d="M11.6875 6.90625C11.6875 6.76535 11.7435 6.63023 11.8431 6.5306C11.9427 6.43097 12.0779 6.375 12.2188 6.375H13.2812C13.4221 6.375 13.5573 6.43097 13.6569 6.5306C13.7565 6.63023 13.8125 6.76535 13.8125 6.90625V7.96875C13.8125 8.10965 13.7565 8.24477 13.6569 8.3444C13.5573 8.44403 13.4221 8.5 13.2812 8.5H12.2188C12.0779 8.5 11.9427 8.44403 11.8431 8.3444C11.7435 8.24477 11.6875 8.10965 11.6875 7.96875V6.90625Z" fill="white"/>
</g>
<defs>
<clipPath id="clip0_1685_1817">
<rect width="17" height="17" fill="white"/>
</clipPath>
</defs>
</svg>
