<svg width="22" height="22" viewBox="0 0 22 22" fill="none" xmlns="http://www.w3.org/2000/svg">
<path d="M6.41667 19.0587H15.5833C16.5558 19.0587 17.4884 18.6922 18.1761 18.0398C18.8637 17.3874 19.25 16.5026 19.25 15.58V11.362C19.25 11.1313 19.1534 10.9101 18.9815 10.747C18.8096 10.5839 18.5764 10.4923 18.3333 10.4923C18.0902 10.4923 17.8571 10.5839 17.6852 10.747C17.5132 10.9101 17.4167 11.1313 17.4167 11.362V15.58C17.4167 16.0413 17.2235 16.4837 16.8797 16.8099C16.5359 17.1361 16.0696 17.3193 15.5833 17.3193H6.41667C5.93044 17.3193 5.46412 17.1361 5.1203 16.8099C4.77649 16.4837 4.58333 16.0413 4.58333 15.58V6.88306C4.58333 6.42175 4.77649 5.97933 5.1203 5.65313C5.46412 5.32693 5.93044 5.14368 6.41667 5.14368H11C11.2431 5.14368 11.4763 5.05205 11.6482 4.88895C11.8201 4.72585 11.9167 4.50464 11.9167 4.27399C11.9167 4.04333 11.8201 3.82212 11.6482 3.65902C11.4763 3.49592 11.2431 3.4043 11 3.4043H6.41667C5.44421 3.4043 4.51157 3.77081 3.82394 4.4232C3.13631 5.0756 2.75 5.96043 2.75 6.88306V15.58C2.75 16.5026 3.13631 17.3874 3.82394 18.0398C4.51157 18.6922 5.44421 19.0587 6.41667 19.0587Z" fill="#C4B284"/>
<path d="M18.6003 4.52628L11.0011 11.7447L7.98531 8.87473C7.8127 8.71096 7.57859 8.61896 7.33448 8.61896C7.09037 8.61896 6.85626 8.71096 6.68365 8.87473C6.51103 9.0385 6.41406 9.26061 6.41406 9.49221C6.41406 9.60689 6.43787 9.72044 6.48413 9.82639C6.53038 9.93234 6.59818 10.0286 6.68365 10.1097L10.3503 13.5885C10.4355 13.67 10.5369 13.7347 10.6486 13.7788C10.7603 13.823 10.8801 13.8457 11.0011 13.8457C11.1222 13.8457 11.242 13.823 11.3537 13.7788C11.4654 13.7347 11.5668 13.67 11.652 13.5885L19.902 5.76124C20.0746 5.59747 20.1716 5.37536 20.1716 5.14376C20.1716 4.91216 20.0746 4.69004 19.902 4.52628C19.7294 4.36251 19.4953 4.27051 19.2511 4.27051C19.007 4.27051 18.7729 4.36251 18.6003 4.52628Z" fill="#C4B284"/>
</svg>
