<svg width="20" height="20" viewBox="0 0 20 20" fill="none" xmlns="http://www.w3.org/2000/svg">
<g clip-path="url(#clip0_1691_2116)">
<path fill-rule="evenodd" clip-rule="evenodd" d="M17.5 2.04532H2.5C2.16848 2.04532 1.85054 2.17026 1.61612 2.39267C1.3817 2.61508 1.25 2.91673 1.25 3.23126V17.4626C1.25 17.7771 1.3817 18.0787 1.61612 18.3011C1.85054 18.5236 2.16848 18.6485 2.5 18.6485H17.5C17.8315 18.6485 18.1495 18.5236 18.3839 18.3011C18.6183 18.0787 18.75 17.7771 18.75 17.4626V3.23126C18.75 2.91673 18.6183 2.61508 18.3839 2.39267C18.1495 2.17026 17.8315 2.04532 17.5 2.04532ZM2.5 0.859375C1.83696 0.859375 1.20107 1.10927 0.732233 1.55408C0.263392 1.9989 0 2.6022 0 3.23126L0 17.4626C0 18.0916 0.263392 18.6949 0.732233 19.1397C1.20107 19.5845 1.83696 19.8344 2.5 19.8344H17.5C18.163 19.8344 18.7989 19.5845 19.2678 19.1397C19.7366 18.6949 20 18.0916 20 17.4626V3.23126C20 2.6022 19.7366 1.9989 19.2678 1.55408C18.7989 1.10927 18.163 0.859375 17.5 0.859375L2.5 0.859375Z" fill="#C4B284"/>
<path fill-rule="evenodd" clip-rule="evenodd" d="M5.80862 6.36952C5.86667 6.3143 5.93564 6.27049 6.01157 6.24059C6.08751 6.2107 6.16891 6.19531 6.25112 6.19531C6.33333 6.19531 6.41473 6.2107 6.49066 6.24059C6.56659 6.27049 6.63556 6.3143 6.69362 6.36952L10.0011 9.50871L13.3086 6.36952C13.3667 6.31439 13.4357 6.27065 13.5116 6.24082C13.5876 6.21098 13.6689 6.19562 13.7511 6.19562C13.8333 6.19562 13.9147 6.21098 13.9906 6.24082C14.0665 6.27065 14.1355 6.31439 14.1936 6.36952C14.2517 6.42465 14.2978 6.4901 14.3293 6.56214C14.3607 6.63417 14.3769 6.71137 14.3769 6.78934C14.3769 6.86731 14.3607 6.94452 14.3293 7.01655C14.2978 7.08858 14.2517 7.15403 14.1936 7.20917L10.8849 10.3472L14.1936 13.4852C14.2517 13.5403 14.2978 13.6058 14.3293 13.6778C14.3607 13.7498 14.3769 13.827 14.3769 13.905C14.3769 13.983 14.3607 14.0602 14.3293 14.1322C14.2978 14.2042 14.2517 14.2697 14.1936 14.3248C14.1355 14.3799 14.0665 14.4237 13.9906 14.4535C13.9147 14.4834 13.8333 14.4987 13.7511 14.4987C13.6689 14.4987 13.5876 14.4834 13.5116 14.4535C13.4357 14.4237 13.3667 14.3799 13.3086 14.3248L10.0011 11.1856L6.69362 14.3248C6.63551 14.3799 6.56652 14.4237 6.4906 14.4535C6.41467 14.4834 6.3333 14.4987 6.25112 14.4987C6.16894 14.4987 6.08756 14.4834 6.01164 14.4535C5.93571 14.4237 5.86673 14.3799 5.80862 14.3248C5.75051 14.2697 5.70441 14.2042 5.67296 14.1322C5.64151 14.0602 5.62533 13.983 5.62533 13.905C5.62533 13.827 5.64151 13.7498 5.67296 13.6778C5.70441 13.6058 5.75051 13.5403 5.80862 13.4852L9.11737 10.3472L5.80862 7.20917C5.75041 7.15408 5.70423 7.08865 5.67273 7.01661C5.64122 6.94457 5.625 6.86734 5.625 6.78934C5.625 6.71135 5.64122 6.63412 5.67273 6.56208C5.70423 6.49004 5.75041 6.4246 5.80862 6.36952Z" fill="#C4B284"/>
</g>
<defs>
<clipPath id="clip0_1691_2116">
<rect width="20" height="18.9751" fill="white" transform="translate(0 0.859375)"/>
</clipPath>
</defs>
</svg>
